PathFileType	4	(X/Y/Z)	C:\Users\WrightLab\Desktop\Jo\P1.2boxCal1-Unnamed.trc
DataRate	CameraRate	NumFrames	NumMarkers	Units	OrigDataRate	OrigDataStartFrame	OrigNumFrames
100.00	100.00	       30	0	mm	100.00	724	       827
Frame#	Time	
		

724	7.230	-670.58942	349.85410	1000.38214	89.58893	323.13712	-464.49664	-190.95386	360.34933	1306.81140	-213.20187	355.08832	983.00641	-655.76611	354.26001	1314.65503	-413.49844	311.90939	-187.06508				50.85299	332.48254	-141.61372	-383.48773	306.36661	-523.89703	
725	7.240	-670.76038	349.79541	1000.63422	89.70584	323.06683	-464.67993	-190.97545	360.37903	1306.81409	-213.45656	354.91544	983.12396	-655.75830	354.27307	1314.66040	-413.41074	312.00143	-186.99609				51.06616	332.43161	-141.57555	-383.17761	306.41443	-523.54156	
726	7.250	-670.59955	349.84549	1000.37738	89.67718	323.05246	-464.71042	-190.98454	360.37787	1306.80786	-213.23615	355.07645	982.97101	-655.75812	354.36288	1314.26160	-413.55560	312.07178	-187.05341				50.84291	332.47498	-141.62718	-383.16843	306.40207	-523.54767	
727	7.260	-670.60077	349.83609	1000.37250	89.51613	323.09814	-464.58014	-190.98787	360.36349	1306.81055	-213.32576	355.20605	982.97089	-655.60370	354.30301	1313.96887	-413.55469	312.07321	-187.05115				50.84653	332.48953	-141.61441	-383.16632	306.40463	-523.54553	
728	7.270	-670.80371	349.65302	1000.42413	89.52427	323.16824	-464.41385	-190.97896	360.39035	1306.80383	-213.45184	354.92194	983.12579	-655.77386	354.12338	1314.32178	-413.49841	311.91946	-187.06082				51.06488	332.44070	-141.58260	-383.15399	306.40173	-523.54468	
729	7.280	-670.59729	349.82782	1000.36908	89.65251	323.06830	-464.66937	-190.95619	360.39352	1306.80237	-213.45454	354.91873	983.13550	-655.60608	354.21036	1314.36621	-413.48746	311.91647	-187.05753				50.86848	332.48929	-141.58638	-383.17514	306.42468	-523.53418	
730	7.290	-670.54541	349.99146	1000.54010	89.49107	323.06152	-464.66431	-190.69623	360.55609	1306.68140	-213.45799	354.90771	983.13068	-655.76031	354.26154	1314.65833	-413.40247	312.00494	-186.98956				51.03996	332.09543	-141.34065	-383.17630	306.39728	-523.55261	
731	7.300	-670.60669	349.73627	1000.82104	89.62669	323.15521	-464.45847	-190.68169	360.51505	1306.66943	-213.23479	355.07315	982.99860	-655.50958	354.45093	1314.36414	-413.49768	311.91855	-187.06180				51.26099	332.06537	-141.32039	-383.16788	306.41687	-523.53772	
732	7.310	-670.63141	349.72809	1000.80963	89.52843	323.13159	-464.50192	-190.97646	360.36713	1306.80518	-213.32375	355.19501	982.96002	-655.66809	354.22028	1314.29724	-413.49780	311.91254	-187.06723				51.02615	332.09958	-141.34377	-383.15271	306.40778	-523.54034	
733	7.320	-670.79572	349.69012	1001.07410	89.66008	323.06799	-464.67108	-190.70992	360.55789	1306.68555	-213.47423	354.90555	983.11987	-655.51349	354.17245	1314.00842	-413.37537	311.86444	-187.01544				51.24277	332.06137	-141.33249	-383.16925	306.42136	-523.53510	
734	7.330	-670.83350	349.52762	1000.85486	89.59490	323.10684	-464.56973	-190.89429	360.33826	1306.70715	-213.22232	355.08328	982.98859	-655.50067	354.44791	1314.36731	-413.49689	311.91238	-187.06705				50.84201	332.48251	-141.62273	-383.14377	306.41318	-523.53479	
735	7.340	-670.62012	349.73068	1000.81317	89.48946	323.09329	-464.58826	-190.85316	360.31729	1306.69421	-213.22897	355.05853	982.99255	-655.65948	354.23083	1314.30396	-413.49869	311.91443	-187.06474				51.25000	332.05582	-141.32205	-383.17490	306.40793	-523.54523	
736	7.350	-670.81061	349.68808	1001.07056	89.60062	323.12012	-464.53882	-190.90082	360.30997	1306.69214	-213.46466	354.91873	983.13477	-655.66058	354.22470	1314.30188	-413.49695	311.90677	-187.06975				51.05595	332.11816	-141.35213	-383.14853	306.41669	-523.53351	
737	7.360	-670.83380	349.69559	1001.07477	89.65197	323.07364	-464.65656	-190.98601	360.37848	1306.81055	-213.18135	355.07617	982.99792	-655.66248	354.22656	1314.29993	-413.32007	312.09436	-187.28470				51.24923	332.06009	-141.32234	-383.16891	306.40787	-523.54395	
738	7.370	-670.60339	349.83212	1000.36755	89.60463	323.07706	-464.64215	-190.97908	360.37607	1306.81958	-213.23232	355.06470	982.97217	-655.66614	354.22391	1314.29639	-413.48868	311.90466	-187.06560				51.06195	332.12057	-141.34164	-383.16052	306.41806	-523.53528	
739	7.380	-670.85779	349.52164	1000.85474	89.65704	323.11197	-464.56573	-190.97287	360.37732	1306.82117	-213.20253	355.08401	983.01050	-655.60010	354.21387	1314.36804	-413.35947	311.86554	-187.01610				51.22839	332.21417	-141.49445	-383.17264	306.41385	-523.54083	
740	7.390	-670.83099	349.52542	1000.86169	89.66897	323.08704	-464.62683	-190.95723	360.40421	1306.81128	-213.22615	355.07031	982.99243	-655.75916	354.34848	1314.25745	-413.49371	311.91196	-187.06721				50.84468	332.47772	-141.62158	-383.17389	306.39609	-523.55286	
741	7.400	-670.59229	349.83911	1000.37390	89.51208	323.12711	-464.51047	-190.88292	360.31863	1306.70959	-213.34126	355.20831	982.95471	-655.49463	354.50046	1314.06348	-413.49359	311.91129	-187.06523				51.05154	332.42627	-141.58932	-383.16837	306.41562	-523.53870	
742	7.410	-670.85590	349.52750	1000.85431	89.63706	323.12146	-464.54041	-190.88782	360.33759	1306.69397	-213.21204	355.07584	982.99207	-655.51257	354.53412	1314.07678	-413.49768	311.91013	-187.06686				51.11015	332.28250	-141.45018	-383.49271	306.35822	-523.90369	
743	7.420	-670.57397	349.88400	1000.97711	89.54087	323.13260	-464.50116	-190.98869	360.37601	1306.81909	-213.32312	355.19806	982.95959	-655.51532	354.15646	1314.00525	-413.49744	311.91113	-187.06276				51.23218	332.20758	-141.46875	-383.14410	306.40961	-523.53723	
744	7.430	-670.56342	349.87958	1000.97797	89.61171	323.07999	-464.63611	-190.89941	360.31519	1306.68848	-213.48044	354.90799	983.12134	-655.68683	354.30417	1314.00183	-413.49472	311.91446	-187.06369				51.24443	332.05258	-141.31900	-383.47934	306.35416	-523.90338	
745	7.440	-670.60254	349.82843	1000.37000	89.72250	323.12524	-464.54266	-190.70372	360.53680	1306.67419	-213.21738	355.06485	982.98395	-655.66681	354.21030	1314.29211	-413.49701	311.91574	-187.06094				51.03654	332.08389	-141.36723	-383.15897	306.42178	-523.53247	
746	7.450	-670.60071	349.84354	1000.37610	89.60480	323.10068	-464.58578	-190.68852	360.52762	1306.66858	-213.43791	354.93036	983.12085	-655.75134	354.25058	1314.65271	-413.37271	311.86978	-187.01067				51.07004	332.44070	-141.57945	-382.94550	306.12384	-523.22473	
747	7.460	-670.79071	349.80396	1000.64111	89.53602	323.16602	-464.42072	-190.98471	360.38162	1306.81470	-213.21678	355.07425	982.99536	-655.65326	354.21786	1314.29993	-413.49521	311.90887	-187.06369				51.22855	332.20963	-141.48061	-383.18304	306.41141	-523.54480	
748	7.470	-670.54327	350.00916	1000.54456	89.68650	323.11716	-464.55719	-190.97418	360.37552	1306.80664	-213.20972	355.07074	982.98938	-655.76630	354.24231	1314.64990	-413.49518	311.91843	-187.06256				50.85813	332.48431	-141.61981	-383.15103	306.40466	-523.54205	
749	7.480	-670.77887	349.81729	1000.64349	89.56890	323.06989	-464.65454	-190.67793	360.54672	1306.66675	-213.18584	355.06271	982.98175	-655.74005	354.26712	1314.65991	-413.46402	312.16705	-187.33742				51.22313	332.20566	-141.48386	-383.16931	306.41107	-523.54193	
750	7.490	-670.80444	349.80890	1000.63257	89.55003	323.11615	-464.54160	-190.92897	360.37756	1306.82764	-213.45795	354.91165	983.12982	-655.66895	354.21359	1314.29272	-413.49585	311.91449	-187.05995				51.10745	332.27917	-141.45526	-383.17676	306.42029	-523.53748	
751	7.500	-670.85150	349.52658	1000.85840	89.61737	323.12173	-464.53714	-190.95726	360.37332	1306.79846	-213.47511	354.90906	983.13214	-655.66675	354.21695	1314.29260	-413.36563	311.86237	-187.01411				51.01262	332.25714	-141.50423	-383.48535	306.35504	-523.90411	
752	7.510	-670.81305	349.79639	1000.63123	89.60426	323.16272	-464.43759	-190.94264	360.38580	1306.82751	-213.21167	355.05328	982.99536	-655.51282	354.14752	1313.99805	-413.49390	311.90881	-187.07048				51.25417	332.06717	-141.32594	-383.59180	306.69876	-523.89771	
753	7.520	-670.61884	349.72333	1000.81433	89.64883	323.10089	-464.59106	-190.95454	360.38550	1306.81482	-213.21234	355.09567	982.97485	-655.76910	354.25452	1314.65308	-413.55563	312.08191	-187.04398				51.26419	332.05835	-141.31367	-383.16458	306.41714	-523.53680	
